<mxfile host="app.diagrams.net" agent="Mozilla/5.0 (Windows NT 10.0; Win64; x64) AppleWebKit/537.36 (KHTML, like Gecko) Chrome/131.0.0.0 Safari/537.36 Edg/131.0.0.0" version="25.0.1" pages="2">
  <diagram name="印度爬虫数据入库流程" id="3OsxAJAkr8hgpYSMkOOm">
    <mxGraphModel dx="1626" dy="755" grid="1" gridSize="10" guides="1" tooltips="1" connect="1" arrows="1" fold="1" page="1" pageScale="1" pageWidth="827" pageHeight="1169" math="0" shadow="0">
      <root>
        <mxCell id="0" />
        <mxCell id="1" parent="0" />
        <mxCell id="TlOnpqMIPoxIGnfPQFMj-1" value="印度爬虫" style="shape=umlLifeline;perimeter=lifelinePerimeter;whiteSpace=wrap;container=1;dropTarget=0;collapsible=0;recursiveResize=0;outlineConnect=0;portConstraint=eastwest;newEdgeStyle={&quot;edgeStyle&quot;:&quot;elbowEdgeStyle&quot;,&quot;elbow&quot;:&quot;vertical&quot;,&quot;curved&quot;:0,&quot;rounded&quot;:0};size=65;" vertex="1" parent="1">
          <mxGeometry x="20" y="20" width="150" height="614" as="geometry" />
        </mxCell>
        <mxCell id="TlOnpqMIPoxIGnfPQFMj-2" value="kg-import-api" style="shape=umlLifeline;perimeter=lifelinePerimeter;whiteSpace=wrap;container=1;dropTarget=0;collapsible=0;recursiveResize=0;outlineConnect=0;portConstraint=eastwest;newEdgeStyle={&quot;edgeStyle&quot;:&quot;elbowEdgeStyle&quot;,&quot;elbow&quot;:&quot;vertical&quot;,&quot;curved&quot;:0,&quot;rounded&quot;:0};size=65;" vertex="1" parent="1">
          <mxGeometry x="289" y="20" width="150" height="614" as="geometry" />
        </mxCell>
        <mxCell id="TlOnpqMIPoxIGnfPQFMj-3" value="wrc_data_aggregation_service" style="shape=umlLifeline;perimeter=lifelinePerimeter;whiteSpace=wrap;container=1;dropTarget=0;collapsible=0;recursiveResize=0;outlineConnect=0;portConstraint=eastwest;newEdgeStyle={&quot;edgeStyle&quot;:&quot;elbowEdgeStyle&quot;,&quot;elbow&quot;:&quot;vertical&quot;,&quot;curved&quot;:0,&quot;rounded&quot;:0};size=65;" vertex="1" parent="1">
          <mxGeometry x="566" y="20" width="231" height="614" as="geometry" />
        </mxCell>
        <mxCell id="TlOnpqMIPoxIGnfPQFMj-4" value="RabbitMQ" style="shape=umlLifeline;perimeter=lifelinePerimeter;whiteSpace=wrap;container=1;dropTarget=0;collapsible=0;recursiveResize=0;outlineConnect=0;portConstraint=eastwest;newEdgeStyle={&quot;edgeStyle&quot;:&quot;elbowEdgeStyle&quot;,&quot;elbow&quot;:&quot;vertical&quot;,&quot;curved&quot;:0,&quot;rounded&quot;:0};size=65;" vertex="1" parent="1">
          <mxGeometry x="847" y="20" width="150" height="614" as="geometry" />
        </mxCell>
        <mxCell id="TlOnpqMIPoxIGnfPQFMj-5" value="wrc_data_merge_service" style="shape=umlLifeline;perimeter=lifelinePerimeter;whiteSpace=wrap;container=1;dropTarget=0;collapsible=0;recursiveResize=0;outlineConnect=0;portConstraint=eastwest;newEdgeStyle={&quot;edgeStyle&quot;:&quot;elbowEdgeStyle&quot;,&quot;elbow&quot;:&quot;vertical&quot;,&quot;curved&quot;:0,&quot;rounded&quot;:0};size=65;" vertex="1" parent="1">
          <mxGeometry x="1047" y="20" width="190" height="614" as="geometry" />
        </mxCell>
        <mxCell id="TlOnpqMIPoxIGnfPQFMj-6" value="调用/kg/api/v2/content接口" style="verticalAlign=bottom;edgeStyle=elbowEdgeStyle;elbow=vertical;curved=0;rounded=0;endArrow=block;" edge="1" parent="1" source="TlOnpqMIPoxIGnfPQFMj-1" target="TlOnpqMIPoxIGnfPQFMj-2">
          <mxGeometry relative="1" as="geometry">
            <Array as="points">
              <mxPoint x="238" y="127" />
            </Array>
          </mxGeometry>
        </mxCell>
        <mxCell id="TlOnpqMIPoxIGnfPQFMj-7" value="校验内容完整性" style="curved=1;endArrow=block;rounded=0;" edge="1" parent="1" source="TlOnpqMIPoxIGnfPQFMj-2" target="TlOnpqMIPoxIGnfPQFMj-2">
          <mxGeometry relative="1" as="geometry">
            <Array as="points">
              <mxPoint x="415" y="179" />
              <mxPoint x="415" y="209" />
            </Array>
          </mxGeometry>
        </mxCell>
        <mxCell id="TlOnpqMIPoxIGnfPQFMj-8" value="校验通过, 调用/importContent接口" style="verticalAlign=bottom;edgeStyle=elbowEdgeStyle;elbow=vertical;curved=0;rounded=0;endArrow=block;" edge="1" parent="1" source="TlOnpqMIPoxIGnfPQFMj-2" target="TlOnpqMIPoxIGnfPQFMj-3">
          <mxGeometry relative="1" as="geometry">
            <Array as="points">
              <mxPoint x="531" y="261" />
            </Array>
          </mxGeometry>
        </mxCell>
        <mxCell id="TlOnpqMIPoxIGnfPQFMj-9" value="封装成FeedItemBean" style="curved=1;endArrow=block;rounded=0;" edge="1" parent="1" source="TlOnpqMIPoxIGnfPQFMj-3" target="TlOnpqMIPoxIGnfPQFMj-3">
          <mxGeometry relative="1" as="geometry">
            <Array as="points">
              <mxPoint x="732" y="313" />
              <mxPoint x="732" y="343" />
            </Array>
          </mxGeometry>
        </mxCell>
        <mxCell id="TlOnpqMIPoxIGnfPQFMj-10" value="发送FeedItemBean" style="verticalAlign=bottom;edgeStyle=elbowEdgeStyle;elbow=vertical;curved=0;rounded=0;endArrow=block;" edge="1" parent="1" source="TlOnpqMIPoxIGnfPQFMj-3" target="TlOnpqMIPoxIGnfPQFMj-4">
          <mxGeometry relative="1" as="geometry">
            <Array as="points">
              <mxPoint x="810" y="395" />
            </Array>
          </mxGeometry>
        </mxCell>
        <mxCell id="TlOnpqMIPoxIGnfPQFMj-11" value="消息队列通知" style="verticalAlign=bottom;edgeStyle=elbowEdgeStyle;elbow=vertical;curved=0;rounded=0;endArrow=block;" edge="1" parent="1" source="TlOnpqMIPoxIGnfPQFMj-4" target="TlOnpqMIPoxIGnfPQFMj-5">
          <mxGeometry relative="1" as="geometry">
            <Array as="points">
              <mxPoint x="1040" y="447" />
            </Array>
          </mxGeometry>
        </mxCell>
        <mxCell id="TlOnpqMIPoxIGnfPQFMj-12" value="内容新增或更新" style="curved=1;endArrow=block;rounded=0;" edge="1" parent="1" source="TlOnpqMIPoxIGnfPQFMj-5" target="TlOnpqMIPoxIGnfPQFMj-5">
          <mxGeometry relative="1" as="geometry">
            <Array as="points">
              <mxPoint x="1193" y="499" />
              <mxPoint x="1193" y="529" />
            </Array>
          </mxGeometry>
        </mxCell>
      </root>
    </mxGraphModel>
  </diagram>
  <diagram id="2quoHYc5wsdK02FxX0-w" name="合作CP数据入库流程">
    <mxGraphModel dx="1626" dy="755" grid="1" gridSize="10" guides="1" tooltips="1" connect="1" arrows="1" fold="1" page="1" pageScale="1" pageWidth="827" pageHeight="1169" math="0" shadow="0">
      <root>
        <mxCell id="0" />
        <mxCell id="1" parent="0" />
        <mxCell id="zkqwud8ra39mxUBW4Ts--1" value="CP的parser" style="shape=umlLifeline;perimeter=lifelinePerimeter;whiteSpace=wrap;container=1;dropTarget=0;collapsible=0;recursiveResize=0;outlineConnect=0;portConstraint=eastwest;newEdgeStyle={&quot;edgeStyle&quot;:&quot;elbowEdgeStyle&quot;,&quot;elbow&quot;:&quot;vertical&quot;,&quot;curved&quot;:0,&quot;rounded&quot;:0};size=65;" vertex="1" parent="1">
          <mxGeometry x="20" y="20" width="150" height="480" as="geometry" />
        </mxCell>
        <mxCell id="zkqwud8ra39mxUBW4Ts--2" value="wrc_data_aggregation_service" style="shape=umlLifeline;perimeter=lifelinePerimeter;whiteSpace=wrap;container=1;dropTarget=0;collapsible=0;recursiveResize=0;outlineConnect=0;portConstraint=eastwest;newEdgeStyle={&quot;edgeStyle&quot;:&quot;elbowEdgeStyle&quot;,&quot;elbow&quot;:&quot;vertical&quot;,&quot;curved&quot;:0,&quot;rounded&quot;:0};size=65;" vertex="1" parent="1">
          <mxGeometry x="220" y="20" width="231" height="480" as="geometry" />
        </mxCell>
        <mxCell id="zkqwud8ra39mxUBW4Ts--3" value="RabbitMQ" style="shape=umlLifeline;perimeter=lifelinePerimeter;whiteSpace=wrap;container=1;dropTarget=0;collapsible=0;recursiveResize=0;outlineConnect=0;portConstraint=eastwest;newEdgeStyle={&quot;edgeStyle&quot;:&quot;elbowEdgeStyle&quot;,&quot;elbow&quot;:&quot;vertical&quot;,&quot;curved&quot;:0,&quot;rounded&quot;:0};size=65;" vertex="1" parent="1">
          <mxGeometry x="501" y="20" width="150" height="480" as="geometry" />
        </mxCell>
        <mxCell id="zkqwud8ra39mxUBW4Ts--4" value="wrc_data_merge_service" style="shape=umlLifeline;perimeter=lifelinePerimeter;whiteSpace=wrap;container=1;dropTarget=0;collapsible=0;recursiveResize=0;outlineConnect=0;portConstraint=eastwest;newEdgeStyle={&quot;edgeStyle&quot;:&quot;elbowEdgeStyle&quot;,&quot;elbow&quot;:&quot;vertical&quot;,&quot;curved&quot;:0,&quot;rounded&quot;:0};size=65;" vertex="1" parent="1">
          <mxGeometry x="701" y="20" width="190" height="480" as="geometry" />
        </mxCell>
        <mxCell id="zkqwud8ra39mxUBW4Ts--5" value="解析Feed URL" style="verticalAlign=bottom;edgeStyle=elbowEdgeStyle;elbow=vertical;curved=0;rounded=0;endArrow=block;" edge="1" parent="1" source="zkqwud8ra39mxUBW4Ts--1" target="zkqwud8ra39mxUBW4Ts--2">
          <mxGeometry relative="1" as="geometry">
            <Array as="points">
              <mxPoint x="224" y="127" />
            </Array>
          </mxGeometry>
        </mxCell>
        <mxCell id="zkqwud8ra39mxUBW4Ts--6" value="封装成FeedItemBean" style="curved=1;endArrow=block;rounded=0;" edge="1" parent="1" source="zkqwud8ra39mxUBW4Ts--2" target="zkqwud8ra39mxUBW4Ts--2">
          <mxGeometry relative="1" as="geometry">
            <Array as="points">
              <mxPoint x="387" y="179" />
              <mxPoint x="387" y="209" />
            </Array>
          </mxGeometry>
        </mxCell>
        <mxCell id="zkqwud8ra39mxUBW4Ts--7" value="发送FeedItemBean" style="verticalAlign=bottom;edgeStyle=elbowEdgeStyle;elbow=vertical;curved=0;rounded=0;endArrow=block;" edge="1" parent="1" source="zkqwud8ra39mxUBW4Ts--2" target="zkqwud8ra39mxUBW4Ts--3">
          <mxGeometry relative="1" as="geometry">
            <Array as="points">
              <mxPoint x="464" y="261" />
            </Array>
          </mxGeometry>
        </mxCell>
        <mxCell id="zkqwud8ra39mxUBW4Ts--8" value="消息队列通知" style="verticalAlign=bottom;edgeStyle=elbowEdgeStyle;elbow=vertical;curved=0;rounded=0;endArrow=block;" edge="1" parent="1" source="zkqwud8ra39mxUBW4Ts--3" target="zkqwud8ra39mxUBW4Ts--4">
          <mxGeometry relative="1" as="geometry">
            <Array as="points">
              <mxPoint x="695" y="313" />
            </Array>
          </mxGeometry>
        </mxCell>
        <mxCell id="zkqwud8ra39mxUBW4Ts--9" value="内容新增或更新" style="curved=1;endArrow=block;rounded=0;" edge="1" parent="1" source="zkqwud8ra39mxUBW4Ts--4" target="zkqwud8ra39mxUBW4Ts--4">
          <mxGeometry relative="1" as="geometry">
            <Array as="points">
              <mxPoint x="847" y="365" />
              <mxPoint x="847" y="395" />
            </Array>
          </mxGeometry>
        </mxCell>
      </root>
    </mxGraphModel>
  </diagram>
</mxfile>
